<?xml version="1.0" standalone="no"?><!DOCTYPE svg PUBLIC "-//W3C//DTD SVG 1.1//EN" "http://www.w3.org/Graphics/SVG/1.1/DTD/svg11.dtd"><svg t="1608692977379" class="icon" viewBox="0 0 1024 1024" version="1.1" xmlns="http://www.w3.org/2000/svg" p-id="2712" xmlns:xlink="http://www.w3.org/1999/xlink" width="200" height="200"><defs><style type="text/css"></style></defs><path d="M422.2 753.5c-12.5 0-24.3-5.1-35.3-15.3-15.7-14.5-30.4-32.9-40.5-50.2-12.3-21.3-16.5-38.7-12.4-51.8 0.9-2.9 2.2-5.7 4.1-8.4-5.1 0-10.1 0-14.7-0.2-1.9 5-4.7 11.4-8.5 19.6-2.4 5-9.7 20.2-17.1 31.4 1.4 12.7 1.2 34.9-13.5 50.3-11.9 12.5-29.3 17.1-51.9 13.7-59.3-8.9-91.1-22.4-103.1-44-4.3-7.8-7.9-20.4-1-36.3 0-0.1 0.1-0.1 0.1-0.2 0.3-0.6 0.5-1.3 0.9-1.9-15 0.5-33.3-4.3-51.9-22.8-19.2-19.2-32.3-36.4-38.8-51.1-9.9-22.2-4.2-36.4 2.4-44.4 8.3-10.1 27.7-29.2 34.9-36.2l9.1-23.9c-0.4-7.4-1.5-24.6-1.8-43.5-0.7-46.9 3.3-61.5 6.8-69.1 1.1-2.4 2.7-7.3 4.5-12.4 11.3-34.1 34.7-104.9 120.8-149.3 0.3-0.1 0.5-0.3 0.9-0.4 38-17.1 92.8-26.7 109.7-29.4 15.5-13.4 51.5-43.6 67.4-49.9 2.8-1.3 10.1-8.5 16-14.4 16.9-16.8 42.4-42 80.1-57.2 48-19.1 86.8-25.7 125.9-21.4 23 2.6 53.5 23.9 94.3 54 12.2 9 23.7 17.4 31.4 22.2 8.3 5.1 29.8 18.9 48.4 35.6 17.5 15.7 27.8 29.7 31.2 42.6 3.1-1.7 5.9-3.8 7.7-6.5 2.4-3.2 4.5-6.7 6.7-10.6 4.3-7.3 8.8-14.7 15.3-20.4 9.5-8.1 21.2-10.3 33.5-6.1 31.5 10.5 50.2 33.3 58.7 123.6 8.9 95.3-11.8 151.9-73.6 201.8-26.5 21.4-58.7 30.1-92.8 25.2-8.8-1.3-16.7-3.3-23.3-5.4-5.1 17.1-15.4 40.2-35.1 54.3-15.3 10.9-34 14.6-54.1 10.6-12.8-2.4-27-11.2-39.5-21 4.3 14 8.4 30.6 9.5 44.7 1.6 22 2.7 38.6 3 45.2 3.4 8.2 10.3 28.5 2.6 45.8-3.3 7.5-10.7 17.4-26.6 21.8-33.5 9.3-87.7 1.4-93.8 0.4-1-0.1-1.9-0.4-2.8-0.6l-1.4-0.4-34.9 24.4c-11.1 13.7-29.4 35.8-54.5 37.5h-3z m-55.3-107c-0.2 2.2 1.2 10.9 10.1 26 8.3 14.1 20.5 29 33.2 40.8 7.1 6.5 11.3 6.2 12.8 6.1 10.7-0.7 23.8-16.9 30.8-25.6l1-1.2c1-1.2 2.1-2.2 3.4-3.2l43.8-31c4.5-3.1 10.1-4 15.3-2.2l8.2 2.8c15.6 2.2 56.3 6.2 78.1 0.2 3.7-1.1 4.3-2.2 4.5-2.7 2-4.4-0.9-14.7-3.5-20.3-1.1-2.1-1.6-4.3-1.7-6.6 0-0.2-1.1-19.4-3.2-47.8-1.6-21.5-13.6-54.4-18.1-65.3-1.7-4.3-1.7-9.1 0.1-13.4l7.5-17.1c2.4-5.3 7.3-9.1 12.9-10 5.8-1 11.5 1.2 15.5 5.4 13.6 15.1 39.5 38.4 52.2 40.5 0.1 0 0.3 0.1 0.4 0.1 10.9 2.2 20 0.6 27.6-4.8 20.5-14.7 25.7-51.8 25.9-52.1 0.7-5.7 4.2-10.6 9.3-13.1 5.1-2.6 11.1-2.4 16.1 0.4 2 1.2 52.9 28.7 98.4-8 26.4-21.3 43.1-43.1 52.5-68.5 9.9-26.9 12.7-59.8 8.7-103.6-7.9-85.1-23.8-90.5-35.5-94.3-0.3-0.1-0.5-0.1-0.6-0.2-2 1.8-5.6 7.7-7.9 11.6-2.5 4.2-5.2 8.9-8.5 13.5-11.4 15.6-30.1 22.1-40.6 24.7-2.2 1.4-4.8 2.4-7.3 2.7-6.7 0.7-17.3-2.8-19.2-15.7-0.2-1.3-0.2-2.7-0.1-4-0.2-2.1-0.5-5.7-1.1-11.8 0-0.3-1.1-8.7-21.2-26.7-16.6-14.9-36-27.4-43.5-31.9-9-5.6-20.5-14-33.8-23.8-23.3-17.1-62.2-45.7-77.8-47.5-22.3-2.5-55-2.6-109.4 19.2-31.3 12.5-53 34-68.8 49.7-10.8 10.7-18.6 18.4-27.5 21.9-8.2 3.3-38.2 27-61.4 47.2-2.5 2.1-5.6 3.5-8.9 4.1-0.6 0.1-65.1 9.4-105.1 27.4-73.3 38-93.1 97.5-103.6 129.5-2.2 6.7-4 12.1-6 16.3-0.4 1-4.3 10.4-3.5 54 0.4 23.7 1.9 45.2 1.9 45.4 0.2 2.5-0.2 5-1.1 7.3l-11.8 31c-0.9 2.4-2.4 4.5-4.2 6.3-7.2 6.9-27.4 26.7-34.8 35.8-0.1 1.2-0.7 15.2 34 49.9 11 11 21.9 14.9 33.2 11.8 8.4-2.4 14.3-7.6 14.4-7.7 5.7-5.4 14.3-6.4 21-2.2 6.6 4.2 9.6 12.4 7.2 19.9-0.4 1.2-3.1 8.9-17.7 41-1.6 3.8-0.9 5.2-0.4 6.1 2.1 3.8 14.1 17.2 78.2 26.7 7.5 1.1 17.4 1.4 22.1-3.4 5.1-5.3 5.4-18.1 3.5-27.6-1-4.8 0.2-9.8 3.2-13.8 9-11.8 25.9-47.5 27.5-55.8 0.3-4.7 2.5-9.1 6.1-12.1 3.8-3.2 9-4.6 14-3.7 18.3 3.2 66.9-0.5 84.1-2.4 8.5-0.9 16.3 4.7 18.4 13 2 8.3-2.5 16.8-10.4 19.9-17.1 6.2-35.8 17.5-38.9 22.9zM342.6 511c-13 0-25.5-3.4-37.4-10.4-17.3-10.1-28.5-25-33.9-32.2-0.6-0.9-1.5-2-1.8-2.4-10.7-12.5-3.5-29.2 2.1-42.6 1.4-3.3 3.4-8 4.2-10.6-3.3-8.3-19.8-30.9-28-42-3.4-4.7-6.6-9.1-9.3-12.8-19.3-27.4 1.4-66.9 13.8-90.5 5.9-11.2 29-38.6 68.6-81.4 23.2-25 59.2-62.7 66.5-68.4 5.3-4.2 14-8.1 60.9-11.6 23-1.7 44.2-2.6 45.2-2.6 9.4-0.4 17.4 7.1 17.7 16.5 0.3 9.4-7.1 17.4-16.5 17.7-34.9 1.3-77.2 4.7-87.3 7.9-6.7 6.2-33.7 33.8-62.2 64.6-41.3 44.7-59.5 67.3-62.6 73.2-5.7 10.9-12.1 23.5-15.5 34.8-2.8 9.4-3 16.7-0.6 20 2.5 3.5 5.7 7.8 9 12.3 23.7 32.3 34.8 48.9 34.8 61.6 0 7.8-3.5 16-7.2 24.6-1.4 3.2-3.4 8-4.4 11.2 26.5 35.1 47.8 31.6 65.1 23.5 4.3-1.9 8.4-4 12.6-5.9 47.6-22.3 81.3-37.7 104.3-41.8 4.1-15.7 8.1-34 5-63.2-1.4-12.8-4.3-24.9-7.4-37.7-6.1-25.2-12.9-53.8-7.6-91.5 1.4-9.3 10-15.8 19.3-14.5 9.4 1.4 15.8 10 14.5 19.3-4.5 31.2 1.1 54.3 6.9 78.6 3.2 13.4 6.5 27.1 8.1 42.1 4 37.5-2.2 61.3-6.8 78.6-0.7 2.9-1.5 5.7-2.1 8.2-1.9 8.3-9.8 14-18.5 13-14-1.5-64.5 22.2-101.5 39.5-4.2 1.9-8.4 4-12.7 6-11.6 6.1-23.6 8.9-35.3 8.9zM155.2 661.3c-4.7 0-9.4-1.9-12.7-5.7-6.3-7.1-5.8-17.8 1.3-24.1 0 0 6.3-5.8 12-13.2 6.6-8.8 7.6-13.9 7.5-15.3-0.1-0.1-0.2-0.3-0.5-0.5-7.7-5.9-21.2-20.4-49.7-78-15.1-30.3-27-58-27.6-59.2-3.7-8.7 0.2-18.7 9-22.4 8.7-3.7 18.7 0.2 22.4 9 22.4 52 54.4 114.1 66.8 123.6 8.7 6.7 13.5 15.8 13.9 26.4 1 25.4-25.4 50.3-30.8 55.1-3.4 2.9-7.5 4.3-11.6 4.3z m330.7 46.6c-5.6 0-11-2.7-14.3-7.7-5.1-7.9-3-18.5 4.9-23.6 0.2-0.1 24-15.9 48.9-40.1 31.5-30.7 50.6-61.1 55.2-87.8 1.6-9.3 10.5-15.6 19.8-14 9.3 1.6 15.6 10.5 14 19.8-6 34.6-28 70.6-65.6 107.1-27.1 26.4-52.5 43.1-53.5 43.7-2.9 1.6-6.2 2.6-9.4 2.6z m184.3-283.5s6.4 31-5.3 49.1 3.2 43.8 26.7 40.6c23.5-3.2 40.5-28.8 40.6-53.4 0-9.6-6.4-8.7-6.4-8.7s-17.1-4.2-36.3-15.9l-19.3-11.7zM560.7 230.9s-1.1-26.2 8.5-34.7c9.6-8.5 39-18.7 39-18.7S575.6 193 572.4 209c-2.7 6.9-9.1 26.7-9.1 26.7l-2.6-4.8z m136.8-77.1s19.7-17.4 32.4-15.4c12.7 2 39.2 18.4 39.2 18.4s-32.7-15.4-47.1-7.8c-7.1 2.4-26.5 9.8-26.5 9.8l2-5z m-31.6 112c-1.1-15-9.6-20.8-18.2-24.6 1.6 0 17.1-11.2 15-10.1-2.1 1.1-36.9 6.4-42.2 12.8s-36.1 39-36.1 39 19-8 23.8-11.5c-1.2 6 3.3 12.7 7.6 17.6-0.4-1.1-0.6-2.1-0.6-3.3 0-5.2 4.3-9.4 9.4-9.4 5.1 0 9.4 4.3 9.4 9.4 0 5.2-4.3 9.4-9.4 9.4-1.2 0-2.4-0.2-3.3-0.6 0.9 0.7 1.4 1.2 1.4 1.2l-8 16c36.9-41.7 72.2-47 80.2-50.7-1.6-1.6-11.8 0.5-29 4.8z m128.3-42.7l-4.8-10.4 4.8 0.1s-14.4-7.4-25.1-6c-7.5 5.7-31 12.1-31 12.1s8 3.2 14.4 1.1c-6.4 18.7 2.1 23.5 2.1 23.5l-8.5 4.8s12.3-2.7 30.4-8c18.2-5.3 23-17.1 23-17.1h-5.3v-0.1z m-33.7 18c-4.7 0-8.5-3.8-8.5-8.5s3.8-8.5 8.5-8.5 8.5 3.8 8.5 8.5-3.8 8.5-8.5 8.5z m-48.3 68.3s9.3-15.7 12.8-33.4c4.3-12.1 38.5-22.8 50.6-14.2 4.6-0.3 6.4 0.3 6.4 0.3l1.8 8.5s-5.7-0.3-8.9 0.7c-3.2 1.1-15.7 6.4-23.2 29.2-7.5 22.8-9.6 34.2-12.1 34.9-0.3-4 6.4-24.9 5-36.6 0-7.5 6.1-25.6 18.9-32.4-5.3 1.4-18.9 0-27.5 10.4-8.5 10.4-21.4 35.6-23.9 36.3-2.4 0.6 0.1-3.7 0.1-3.7z m66.2 44.9s15.5-28.4 9.1-69.2-8-46.2-6.4-51.5c1.6-5.3 8-9.6 8-9.6l11.9-9.6 4.3 14.4s-10.7 8.9-9.6 15.9c1.1 7.1 4.8 33.8 2.1 50.3-2.7 16.6-6.9 41.7-10.1 48.6-3.4 6.9-9.3 10.7-9.3 10.7z m-241 482.5c-0.4 21.6-0.4 43.7-0.4 65.7v9.3c0 21.6 0 43.5 0.4 65.3l18.7 1.9v7.2h-73.4v-7.1l17.8-1.9c0.6-20.9 0.6-43.1 0.6-67.4H444c0 23.9 0 46 0.6 67.6l17.6 1.7v7.2H389v-7.2l18.9-1.9c0.2-21.4 0.2-43.3 0.2-65.3v-9.3c0-22 0-43.9-0.2-65.5l-18.9-1.9V828h73.4v7.2l-17.6 1.7c-0.6 21.2-0.6 43.1-0.6 64.9h57.1c0-21.6 0-43.5-0.6-64.9l-17.8-1.7V828h73.4v7.2l-18.9 1.6z m105.7-8.8c51.8 0 82.2 29.9 82.2 78.6 0 49.6-32.5 79.7-85.9 79.7h-65.8v-7.2l19.1-1.9c0.6-21.4 0.6-43.5 0.6-67.2v-6.9c0-22.2 0-44.3-0.6-66.1l-19.1-1.7v-7.2h69.6v-0.1z m-4.2 150.5c31.4 0 49.5-26.5 49.5-71.5 0-46.5-18.3-71-48.6-71h-10.1c-0.4 21.8-0.4 44.1-0.4 67v6.9c0 23.7 0 46.3 0.4 68.5h9.3v0.1zM861 870.2h-12.1l-9.7-33.9h-44.8c-0.4 21.2-0.4 43.1-0.4 65.5h29.1l3.2-23.5h10.6V933h-10.6l-3-23.5H794v0.6c0 23.1 0 45.2 0.4 66.8l22.6 2.4v7.2h-78.7v-7.3l19.1-1.9c0.6-21.4 0.6-43.3 0.6-65.3v-9.3c0-22 0-43.9-0.6-65.7l-19.1-1.7v-7.2h123.1l-0.4 42.1z m86.3 22c31.6 14.2 43.3 26.9 43.3 50.9 0 28.2-21.5 47.4-61.3 47.4-17.4 0-36.8-4.5-49.5-12.7l1.5-36.4h12.3l11.2 36.9c6.4 2.4 12.7 3.2 20.8 3.2 21 0 32.7-9.9 32.7-26.5 0-14.4-6.2-22-23.1-29.5l-10.1-4.5c-28.4-12.7-43.5-26.9-43.5-52.4 0-28.6 23.1-45 57.7-45 16.6 0 31.4 4.5 43.1 12.1l-1.9 34.5h-12.3L957.4 835c-4.3-1.9-8.4-2.6-13.8-2.6-18.5 0-30.3 9.3-30.3 25.2 0 14.6 8 22.4 22.9 29.3l11.1 5.3z" fill="" p-id="2713"></path></svg>